<svg xmlns="http://www.w3.org/2000/svg" xmlns:xlink="http://www.w3.org/1999/xlink" viewBox="0 0 418 82"><defs><style>.cls-1{fill:none;}.cls-2{fill:#fff;}.cls-3{clip-path:url(#clip-path);}.cls-4{fill:#e83f4b;}</style><clipPath id="clip-path"><rect class="cls-1" width="418" height="82"/></clipPath></defs><g id="Layer_2" data-name="Layer 2"><g id="DDzS_logo_PE_BOLD_2020_02_09_" data-name="DDzS_logo+PE_BOLD(2020 02 09)"><rect class="cls-2" width="418" height="82"/><g class="cls-3"><path class="cls-4" d="M157,44.3v5.07h-2.68V35H159a8.44,8.44,0,0,1,2.5.34,4.84,4.84,0,0,1,1.74,1,3.69,3.69,0,0,1,1,1.45,5.4,5.4,0,0,1,0,3.77A3.78,3.78,0,0,1,163.2,43a4.74,4.74,0,0,1-1.74,1,7.87,7.87,0,0,1-2.45.35Zm0-2.09h2a3.79,3.79,0,0,0,1.28-.19,2.44,2.44,0,0,0,.91-.52,2.17,2.17,0,0,0,.54-.84,3.21,3.21,0,0,0,.18-1.1,2.89,2.89,0,0,0-.18-1.05,2.1,2.1,0,0,0-.54-.8,2.41,2.41,0,0,0-.91-.5A4.09,4.09,0,0,0,159,37h-2Z"/><path class="cls-4" d="M169.36,47.16h5.77v2.21h-8.45V35h2.68Z"/><path class="cls-4" d="M189.65,49.37h-2.07a1,1,0,0,1-.58-.17,1,1,0,0,1-.32-.44l-1.08-2.94h-6l-1.07,2.94a.85.85,0,0,1-.32.42.84.84,0,0,1-.57.19h-2.08L181.25,35H184Zm-9.33-5.44h4.6l-1.76-4.79c-.08-.21-.17-.46-.26-.75s-.19-.61-.29-1c-.09.34-.18.66-.27,1s-.18.55-.26.77Z"/><path class="cls-4" d="M199.82,35v2.21h-4.33v12.2h-2.68V37.17h-4.36V35Z"/><path class="cls-4" d="M210.62,35V37.1h-6.39v4.26h5.39V43.5h-5.39v5.87h-2.7V35Z"/><path class="cls-4" d="M226.54,42.17A8,8,0,0,1,226,45.1a7.07,7.07,0,0,1-1.48,2.34A6.74,6.74,0,0,1,222.22,49a8.35,8.35,0,0,1-6,0A6.74,6.74,0,0,1,214,47.44a6.94,6.94,0,0,1-1.49-2.34,8.39,8.39,0,0,1,0-5.87,6.74,6.74,0,0,1,3.8-3.87,8.21,8.21,0,0,1,6,0,6.88,6.88,0,0,1,2.31,1.54A7,7,0,0,1,226,39.23,8,8,0,0,1,226.54,42.17Zm-2.75,0a6.71,6.71,0,0,0-.32-2.13,4.39,4.39,0,0,0-.9-1.6,4,4,0,0,0-1.43-1,5,5,0,0,0-1.9-.34,5,5,0,0,0-1.9.34,4.08,4.08,0,0,0-1.44,1A4.55,4.55,0,0,0,215,40a7.25,7.25,0,0,0,0,4.26,4.6,4.6,0,0,0,.91,1.59,4.06,4.06,0,0,0,1.44,1,5,5,0,0,0,1.9.35,5,5,0,0,0,1.9-.35,3.93,3.93,0,0,0,1.43-1,4.43,4.43,0,0,0,.9-1.59A6.71,6.71,0,0,0,223.79,42.17Z"/><path class="cls-4" d="M231.42,43.74v5.63h-2.68V35h4.4a8.85,8.85,0,0,1,2.52.31,4.75,4.75,0,0,1,1.73.85,3.31,3.31,0,0,1,1,1.31,4.37,4.37,0,0,1,.32,1.68,4.42,4.42,0,0,1-.22,1.37,3.8,3.8,0,0,1-.62,1.18,4.4,4.4,0,0,1-1,.93,5.59,5.59,0,0,1-1.35.63,2.64,2.64,0,0,1,.87.83L240,49.37h-2.41a1.1,1.1,0,0,1-.59-.14,1.14,1.14,0,0,1-.42-.4l-3-4.61a1.09,1.09,0,0,0-.37-.37,1.37,1.37,0,0,0-.6-.11Zm0-1.92h1.68a4.08,4.08,0,0,0,1.32-.19,2.64,2.64,0,0,0,.92-.52,2.09,2.09,0,0,0,.55-.8,2.69,2.69,0,0,0,.17-1,2.07,2.07,0,0,0-.72-1.69,3.44,3.44,0,0,0-2.2-.58h-1.72Z"/><path class="cls-4" d="M249.25,44.06c.1.23.2.46.29.69.09-.24.19-.48.29-.71s.2-.45.32-.67l4.26-8a1.24,1.24,0,0,1,.16-.24.72.72,0,0,1,.19-.13L255,35h2.33V49.37H255V40.06c0-.17,0-.36,0-.56s0-.42.05-.63L250.67,47a1.07,1.07,0,0,1-.38.43,1,1,0,0,1-.56.16h-.37a1,1,0,0,1-.56-.16,1.09,1.09,0,0,1-.39-.43L244,38.84c0,.22,0,.43.05.64s0,.41,0,.58v9.31h-2.36V35H244l.23.05a.5.5,0,0,1,.19.13.74.74,0,0,1,.17.24l4.31,8C249.05,43.61,249.16,43.83,249.25,44.06Z"/><path class="cls-4" d="M272.91,49.37h-2.08a.89.89,0,0,1-.89-.61l-1.08-2.94h-6l-1.08,2.94a.83.83,0,0,1-.31.42.87.87,0,0,1-.57.19h-2.09L264.5,35h2.75Zm-9.33-5.44h4.59l-1.75-4.79q-.12-.31-.27-.75c-.09-.29-.19-.61-.28-1-.09.34-.18.66-.27,1s-.18.55-.27.77Z"/><path class="cls-4" d="M287.32,35V37.1h-6.38v4h5v2.06h-5v4.08h6.38v2.14h-9.08V35Z"/><path class="cls-4" d="M302.44,42.17a7.88,7.88,0,0,1-.53,2.91,6.49,6.49,0,0,1-3.78,3.76,7.94,7.94,0,0,1-3,.53h-5.5V35h5.5a7.94,7.94,0,0,1,3,.54,6.79,6.79,0,0,1,2.3,1.48,6.56,6.56,0,0,1,1.48,2.28A7.81,7.81,0,0,1,302.44,42.17Zm-2.74,0a6.71,6.71,0,0,0-.32-2.13,4.28,4.28,0,0,0-.91-1.59,3.87,3.87,0,0,0-1.43-1,4.93,4.93,0,0,0-1.89-.34h-2.8V47.24h2.8a4.93,4.93,0,0,0,1.89-.35,3.85,3.85,0,0,0,1.43-1,4.44,4.44,0,0,0,.91-1.59A6.71,6.71,0,0,0,299.7,42.17Z"/><path class="cls-4" d="M310.34,47.21a3.59,3.59,0,0,0,1.39-.26,2.76,2.76,0,0,0,1-.73,3.22,3.22,0,0,0,.65-1.13,4.73,4.73,0,0,0,.22-1.5V35h2.68v8.63a6.8,6.8,0,0,1-.41,2.38,5.38,5.38,0,0,1-1.19,1.88,5.5,5.5,0,0,1-1.89,1.24,6.7,6.7,0,0,1-2.49.44,6.78,6.78,0,0,1-2.49-.44A5.46,5.46,0,0,1,306,47.85,5.36,5.36,0,0,1,304.79,46a6.58,6.58,0,0,1-.42-2.38V35h2.68v8.62a4.72,4.72,0,0,0,.23,1.5,3.34,3.34,0,0,0,.64,1.14,2.84,2.84,0,0,0,1,.73A3.59,3.59,0,0,0,310.34,47.21Z"/><path class="cls-4" d="M321.82,41h.63a1.67,1.67,0,0,0,.63-.1,1.07,1.07,0,0,0,.43-.34l4-5a1.47,1.47,0,0,1,.52-.44,1.78,1.78,0,0,1,.7-.13H331l-4.85,6a5.21,5.21,0,0,1-.44.47,1.9,1.9,0,0,1-.45.31,1.82,1.82,0,0,1,.59.34,2.84,2.84,0,0,1,.52.56l5,6.74H329a1.52,1.52,0,0,1-.72-.13,1.15,1.15,0,0,1-.39-.4l-4.08-5.32a1.26,1.26,0,0,0-.44-.37,1.71,1.71,0,0,0-.71-.12h-.85v6.34h-2.68V35h2.68Z"/><path class="cls-4" d="M345.63,49.37h-2.07a1,1,0,0,1-.58-.17.93.93,0,0,1-.32-.44l-1.08-2.94h-6l-1.07,2.94a.91.91,0,0,1-.32.42.84.84,0,0,1-.57.19h-2.08L337.23,35H340Zm-9.33-5.44h4.59l-1.75-4.79c-.08-.21-.17-.46-.26-.75s-.19-.61-.29-1c-.09.34-.18.66-.27,1s-.18.55-.27.77Z"/><path class="cls-4" d="M356.51,46a.52.52,0,0,1,.38.17l1.05,1.15A5.75,5.75,0,0,1,355.79,49a7.39,7.39,0,0,1-3.08.58,7.15,7.15,0,0,1-2.88-.55,6.29,6.29,0,0,1-2.19-1.52,6.72,6.72,0,0,1-1.39-2.33,8.84,8.84,0,0,1-.48-3,8,8,0,0,1,.54-3,6.66,6.66,0,0,1,1.51-2.32,6.81,6.81,0,0,1,2.34-1.52,7.86,7.86,0,0,1,3-.55,7,7,0,0,1,2.81.52,6.39,6.39,0,0,1,2,1.36l-.89,1.24a.84.84,0,0,1-.21.21.55.55,0,0,1-.34.09.79.79,0,0,1-.47-.18,5.49,5.49,0,0,0-.61-.39,5.32,5.32,0,0,0-.93-.39,5.13,5.13,0,0,0-1.43-.17,4.76,4.76,0,0,0-1.87.35,4.25,4.25,0,0,0-1.46,1,4.65,4.65,0,0,0-1,1.6,6.12,6.12,0,0,0-.34,2.12,6.28,6.28,0,0,0,.34,2.16,4.77,4.77,0,0,0,.93,1.59,3.92,3.92,0,0,0,1.39,1,4.42,4.42,0,0,0,1.71.34,7.31,7.31,0,0,0,1-.06,3.94,3.94,0,0,0,.82-.19,4.19,4.19,0,0,0,.71-.33,4.89,4.89,0,0,0,.66-.51,1.28,1.28,0,0,1,.21-.14A.48.48,0,0,1,356.51,46Z"/><path class="cls-4" d="M366.37,43.77v5.6h-2.68v-5.6L358.44,35h2.36a.87.87,0,0,1,.56.17,1.62,1.62,0,0,1,.34.43l2.64,4.81c.15.29.29.56.4.82s.22.5.31.75a7.87,7.87,0,0,1,.29-.76,7.56,7.56,0,0,1,.4-.81l2.62-4.81a1.35,1.35,0,0,1,.33-.41.83.83,0,0,1,.55-.19h2.38Z"/><path class="cls-4" d="M376.82,44.25a7.43,7.43,0,0,1-.3,2.19,4.69,4.69,0,0,1-.89,1.67,4,4,0,0,1-1.48,1,5.31,5.31,0,0,1-2.07.37,9,9,0,0,1-1.05-.06,9.46,9.46,0,0,1-1.09-.21l.14-1.59a.51.51,0,0,1,.17-.36.57.57,0,0,1,.42-.13,1.7,1.7,0,0,1,.44.07,2.71,2.71,0,0,0,.69.07,3.1,3.1,0,0,0,1-.16,1.69,1.69,0,0,0,.73-.53,2.38,2.38,0,0,0,.45-.93,5.58,5.58,0,0,0,.15-1.39V35h2.68Z"/><path class="cls-4" d="M381.43,35a.79.79,0,0,1,.22.06.68.68,0,0,1,.18.13,1.5,1.5,0,0,1,.2.22L389.59,45c0-.23,0-.46,0-.69s0-.42,0-.62V35h2.36V49.37H390.5a1.19,1.19,0,0,1-.53-.1,1.1,1.1,0,0,1-.41-.36L382,39.32c0,.21,0,.42,0,.63s0,.4,0,.57v8.85h-2.36V35h1.4Z"/><path class="cls-4" d="M407.46,49.37h-2.07a1,1,0,0,1-.58-.17,1,1,0,0,1-.32-.44l-1.08-2.94h-6l-1.07,2.94a.91.91,0,0,1-.32.42.84.84,0,0,1-.57.19H393.4L399.06,35h2.74Zm-9.33-5.44h4.6L401,39.14c-.08-.21-.17-.46-.26-.75s-.19-.61-.29-1c-.09.34-.18.66-.27,1s-.18.55-.26.77Z"/><g id="Fundacja_Dajemy_Dzieciom_Siłę_Logo_Poziom_" data-name="Fundacja Dajemy Dzieciom Siłę_Logo_Poziom_"><polygon class="cls-4" points="77.99 29.69 80.5 29.69 80.5 28.55 77.99 28.55 77.99 26.63 80.98 26.63 80.98 25.5 76.54 25.5 76.54 32.47 77.99 32.47 77.99 29.69"/><path class="cls-4" d="M83.28,31.73a2.57,2.57,0,0,0,.93.6,3.52,3.52,0,0,0,2.45,0,2.63,2.63,0,0,0,1.51-1.51,3.42,3.42,0,0,0,.2-1.17V25.5H86.93v4.15a2.09,2.09,0,0,1-.1.69,1.51,1.51,0,0,1-.29.53,1.43,1.43,0,0,1-.47.33,1.74,1.74,0,0,1-1.27,0,1.43,1.43,0,0,1-.47-.33,1.51,1.51,0,0,1-.29-.53,2.09,2.09,0,0,1-.1-.69V25.5H82.5v4.15a3.2,3.2,0,0,0,.2,1.17A2.68,2.68,0,0,0,83.28,31.73Z"/><path class="cls-4" d="M91.75,28.44c0-.09,0-.19,0-.3s0-.22,0-.33l3.47,4.42a.57.57,0,0,0,.51.24h.75v-7H95.17v4c0,.1,0,.21,0,.32s0,.23,0,.36l-3.5-4.44a.63.63,0,0,0-.1-.12l-.1-.07a.27.27,0,0,0-.12,0h-.92v7h1.28v-4Z"/><path class="cls-4" d="M102.76,32.21a3.18,3.18,0,0,0,1.12-.72,3.07,3.07,0,0,0,.73-1.1,3.8,3.8,0,0,0,.26-1.41,3.7,3.7,0,0,0-.26-1.39,3.11,3.11,0,0,0-.73-1.11,3.18,3.18,0,0,0-1.12-.72,4,4,0,0,0-1.46-.26H98.61v7h2.69A3.83,3.83,0,0,0,102.76,32.21Zm-2.69-5.58h1.23a2.21,2.21,0,0,1,.87.16,1.85,1.85,0,0,1,.66.47,2,2,0,0,1,.41.74,3.31,3.31,0,0,1,0,2,2.1,2.1,0,0,1-.41.75,1.83,1.83,0,0,1-.66.46,2.21,2.21,0,0,1-.87.16h-1.23V26.63Z"/><path class="cls-4" d="M107,32.37a.51.51,0,0,0,.17-.22l.47-1.33h2.78l.47,1.33a.48.48,0,0,0,.48.32h1.12l-2.72-7h-1.48l-2.72,7h1.13A.44.44,0,0,0,107,32.37Zm1.75-4.67c0-.11.09-.24.14-.4s.09-.31.14-.49c0,.17.09.34.14.49s.1.28.14.39l.76,2.13H108Z"/><path class="cls-4" d="M118.32,30.76a.27.27,0,0,0-.12,0,.26.26,0,0,0-.11.07,2.06,2.06,0,0,1-.31.23,1.87,1.87,0,0,1-.32.15,2,2,0,0,1-.37.08l-.44,0a2,2,0,0,1-.78-.15,1.9,1.9,0,0,1-.63-.46,2,2,0,0,1-.43-.74,2.89,2.89,0,0,1-.16-1,3,3,0,0,1,.15-1,2.1,2.1,0,0,1,.4-.74,1.8,1.8,0,0,1,.63-.46,2.08,2.08,0,0,1,.8-.16,2.35,2.35,0,0,1,.65.08,2.2,2.2,0,0,1,.43.19l.29.18a.43.43,0,0,0,.23.08.24.24,0,0,0,.18-.05.29.29,0,0,0,.11-.11l.49-.66a4,4,0,0,0-.45-.37,2.89,2.89,0,0,0-.55-.29,3.27,3.27,0,0,0-.65-.19,3.38,3.38,0,0,0-.72-.07,3.74,3.74,0,0,0-1,.12,3.29,3.29,0,0,0-.84.34,3.05,3.05,0,0,0-.69.54,3.33,3.33,0,0,0-.52.71,3.14,3.14,0,0,0-.33.87,3.93,3.93,0,0,0-.11,1,4.13,4.13,0,0,0,.23,1.43,3.36,3.36,0,0,0,.67,1.13,3,3,0,0,0,1.07.74,3.46,3.46,0,0,0,1.4.27,3.62,3.62,0,0,0,1.5-.28,2.89,2.89,0,0,0,1-.82l-.58-.61A.28.28,0,0,0,118.32,30.76Z"/><path class="cls-4" d="M121.28,32.55a2.69,2.69,0,0,0,1-.18,1.93,1.93,0,0,0,.72-.53,2.11,2.11,0,0,0,.44-.81A3.49,3.49,0,0,0,123.6,30V25.5h-1.44V30a2.8,2.8,0,0,1-.06.63,1.15,1.15,0,0,1-.2.43.62.62,0,0,1-.32.23,1.25,1.25,0,0,1-.45.08,1.45,1.45,0,0,1-.32,0l-.21,0a.32.32,0,0,0-.22.07.28.28,0,0,0-.09.18l0,.43,0,.42a5.12,5.12,0,0,0,.54.1A4.41,4.41,0,0,0,121.28,32.55Z"/><path class="cls-4" d="M128.87,25.5h-1.48l-2.72,7h1.13a.44.44,0,0,0,.3-.1.46.46,0,0,0,.17-.22l.47-1.33h2.78l.47,1.33a.58.58,0,0,0,.17.23.5.5,0,0,0,.31.09h1.12Zm-1.77,4.32.75-2.12c0-.11.09-.24.14-.4s.09-.31.14-.49c0,.17.09.34.14.49s.1.28.14.39l.76,2.13Z"/><path class="cls-4" d="M80.68,41.82a3.22,3.22,0,0,0,1.13-.72,3.18,3.18,0,0,0,.72-1.1,3.8,3.8,0,0,0,.26-1.41,3.7,3.7,0,0,0-.26-1.39,3.13,3.13,0,0,0-1.85-1.83,4,4,0,0,0-1.46-.26H76.54v7h2.68A3.83,3.83,0,0,0,80.68,41.82ZM78,36.24h1.23a2.23,2.23,0,0,1,.88.16,1.9,1.9,0,0,1,.65.47,2.14,2.14,0,0,1,.42.74,3.54,3.54,0,0,1,0,2,2.18,2.18,0,0,1-.42.75,1.88,1.88,0,0,1-.65.46,2.23,2.23,0,0,1-.88.16H78Z"/><path class="cls-4" d="M90.39,42.08l-2.72-7H86.2l-2.73,7H84.6a.44.44,0,0,0,.3-.1.48.48,0,0,0,.17-.21l.47-1.34h2.78l.47,1.34A.55.55,0,0,0,89,42a.47.47,0,0,0,.3.09ZM85.9,39.43l.75-2.12c0-.11.09-.24.14-.4a4.84,4.84,0,0,0,.14-.49c0,.17.09.34.14.49a4,4,0,0,0,.15.39L88,39.44H85.9Z"/><path class="cls-4" d="M93.35,40.25a1.15,1.15,0,0,1-.2.43.62.62,0,0,1-.32.23,1.25,1.25,0,0,1-.45.08,1.3,1.3,0,0,1-.31,0l-.21,0a.33.33,0,0,0-.23.07.31.31,0,0,0-.09.18l0,.43,0,.42a3.89,3.89,0,0,0,.54.1,4.41,4.41,0,0,0,.52,0,2.66,2.66,0,0,0,1-.18,1.91,1.91,0,0,0,.72-.52,2.23,2.23,0,0,0,.44-.82,3.45,3.45,0,0,0,.14-1.06V35.11H93.41v4.51A2.8,2.8,0,0,1,93.35,40.25Z"/><polygon class="cls-4" points="101.41 40.95 98.42 40.95 98.42 39.12 100.75 39.12 100.75 38.03 98.42 38.03 98.42 36.24 101.41 36.24 101.41 35.11 96.97 35.11 96.97 42.08 101.41 42.08 101.41 40.95"/><path class="cls-4" d="M109.63,37.8v4.28h1.27v-7h-1.26l-.12,0-.11.07a.48.48,0,0,0-.09.13L107.39,39a3.78,3.78,0,0,0-.17.35c-.06.12-.11.25-.16.38a2.39,2.39,0,0,0-.15-.37,3.59,3.59,0,0,0-.17-.34l-1.95-3.72a.48.48,0,0,0-.09-.13l-.1-.07-.13,0h-1.26v7h1.28V37.8c0-.09,0-.19,0-.29l0-.32,2,3.79a.55.55,0,0,0,.21.24.54.54,0,0,0,.29.07h.21a.53.53,0,0,0,.5-.31l2-3.78c0,.11,0,.21,0,.31S109.63,37.71,109.63,37.8Z"/><path class="cls-4" d="M117.22,35.21a.57.57,0,0,0-.17.22l-1.14,2.19-.2.41a3.12,3.12,0,0,0-.15.39c0-.13-.11-.26-.17-.38l-.21-.42L114,35.43a.71.71,0,0,0-.18-.23.49.49,0,0,0-.3-.09h-1.27l2.53,4.29v2.68h1.44V39.4l2.54-4.29h-1.28A.42.42,0,0,0,117.22,35.21Z"/><path class="cls-4" d="M82.53,46.81A3.13,3.13,0,0,0,80.68,45a4,4,0,0,0-1.46-.26H76.54v7h2.68a3.83,3.83,0,0,0,1.46-.26,3.22,3.22,0,0,0,1.13-.72,3.09,3.09,0,0,0,.72-1.1,3.8,3.8,0,0,0,.26-1.41A3.7,3.7,0,0,0,82.53,46.81Zm-1.36,2.38a2.18,2.18,0,0,1-.42.75,1.75,1.75,0,0,1-.65.46,2.23,2.23,0,0,1-.88.17H78V45.85h1.23a2.42,2.42,0,0,1,.88.16,1.9,1.9,0,0,1,.65.47,2.14,2.14,0,0,1,.42.74,3.54,3.54,0,0,1,0,2Z"/><path class="cls-4" d="M89.1,45.47a.85.85,0,0,0,0-.22v-.53H84v1.13h3.34l-3.46,4.9a.76.76,0,0,0-.09.18.69.69,0,0,0,0,.2v.56H89V50.56H85.56L89,45.68A.68.68,0,0,0,89.1,45.47Z"/><rect class="cls-4" x="90.77" y="44.72" width="1.45" height="6.97"/><polygon class="cls-4" points="94.39 51.69 98.83 51.69 98.83 50.56 95.84 50.56 95.84 48.73 98.17 48.73 98.17 47.64 95.84 47.64 95.84 45.85 98.83 45.85 98.83 44.72 94.39 44.72 94.39 51.69"/><path class="cls-4" d="M105.23,50l-.12,0a.41.41,0,0,0-.11.07,2.74,2.74,0,0,1-.31.23,1.87,1.87,0,0,1-.32.15,2,2,0,0,1-.37.08,3,3,0,0,1-.44,0,2,2,0,0,1-.78-.15,2,2,0,0,1-.64-.46,2.14,2.14,0,0,1-.42-.74,2.87,2.87,0,0,1-.16-1,3,3,0,0,1,.15-1,2.1,2.1,0,0,1,.4-.74,1.8,1.8,0,0,1,.63-.46,2.07,2.07,0,0,1,.8-.15,2,2,0,0,1,.65.08,1.74,1.74,0,0,1,.43.18l.29.18a.36.36,0,0,0,.23.08.3.3,0,0,0,.18,0,.57.57,0,0,0,.11-.11l.49-.67a4,4,0,0,0-.45-.37,3.29,3.29,0,0,0-.56-.29,3.7,3.7,0,0,0-.64-.19,4.2,4.2,0,0,0-.72-.06,3.74,3.74,0,0,0-1,.11,3.52,3.52,0,0,0-.84.34,2.83,2.83,0,0,0-.69.55,3.4,3.4,0,0,0-.85,1.57,4,4,0,0,0-.12,1,4.07,4.07,0,0,0,.24,1.42,3.26,3.26,0,0,0,.67,1.13,3.1,3.1,0,0,0,1.06.75,3.73,3.73,0,0,0,1.41.26,3.62,3.62,0,0,0,1.5-.28,2.86,2.86,0,0,0,1.05-.81l-.58-.61A.25.25,0,0,0,105.23,50Z"/><rect class="cls-4" x="107.47" y="44.72" width="1.45" height="6.97"/><path class="cls-4" d="M116.88,45.67a3.38,3.38,0,0,0-1.13-.75,3.95,3.95,0,0,0-2.92,0,3.41,3.41,0,0,0-1.13.74,3.28,3.28,0,0,0-.73,1.13,4,4,0,0,0,0,2.83,3.11,3.11,0,0,0,.73,1.13,3.29,3.29,0,0,0,1.13.75,4.08,4.08,0,0,0,2.92,0,3.38,3.38,0,0,0,1.13-.75,3.22,3.22,0,0,0,.72-1.13,3.84,3.84,0,0,0,.26-1.41,3.9,3.9,0,0,0-.26-1.42A3.27,3.27,0,0,0,116.88,45.67Zm-.64,3.52a2.14,2.14,0,0,1-.42.74,1.75,1.75,0,0,1-.65.46,2.36,2.36,0,0,1-1.76,0,1.71,1.71,0,0,1-.66-.46,2.14,2.14,0,0,1-.42-.74,3.54,3.54,0,0,1,0-2,2.23,2.23,0,0,1,.42-.74,1.71,1.71,0,0,1,.66-.46,2.36,2.36,0,0,1,1.76,0,1.75,1.75,0,0,1,.65.46,2.07,2.07,0,0,1,.42.74,3.54,3.54,0,0,1,0,2Z"/><path class="cls-4" d="M126.06,44.73l-.13,0-.1.07a.48.48,0,0,0-.09.13l-1.94,3.7a3.78,3.78,0,0,0-.17.35l-.15.38-.15-.37a3.59,3.59,0,0,0-.17-.34l-2-3.72a.48.48,0,0,0-.09-.13l-.1-.07-.13,0h-1.26v7h1.27V47.41c0-.09,0-.19,0-.29s0-.21,0-.32l2,3.79a.55.55,0,0,0,.21.24.61.61,0,0,0,.3.08h.2a.55.55,0,0,0,.51-.32l2-3.78,0,.31v4.57h1.27v-7h-1.26Z"/><path class="cls-4" d="M80.29,57.84a2,2,0,0,0-.51-.35,5.89,5.89,0,0,0-.58-.24c-.2-.07-.39-.14-.58-.19a4.18,4.18,0,0,1-.51-.2,1.11,1.11,0,0,1-.36-.26.55.55,0,0,1-.13-.38.78.78,0,0,1,.24-.59,1.1,1.1,0,0,1,.75-.22,1.51,1.51,0,0,1,.5.07,3.4,3.4,0,0,1,.37.16l.29.17a.43.43,0,0,0,.23.07.35.35,0,0,0,.18-.05.57.57,0,0,0,.14-.16l.35-.68a2.7,2.7,0,0,0-.9-.54,3.42,3.42,0,0,0-1.17-.19,2.62,2.62,0,0,0-1,.17,2.17,2.17,0,0,0-.73.46,1.78,1.78,0,0,0-.45.64,2,2,0,0,0-.16.76,2.14,2.14,0,0,0,.14.81,1.64,1.64,0,0,0,.36.55,1.74,1.74,0,0,0,.5.35,4.66,4.66,0,0,0,.58.23l.59.18a2.9,2.9,0,0,1,.5.19,1.13,1.13,0,0,1,.36.27.67.67,0,0,1,.14.43.87.87,0,0,1-.28.69,1.21,1.21,0,0,1-.78.23,1.49,1.49,0,0,1-.59-.1,2.25,2.25,0,0,1-.44-.21L77,59.7a.56.56,0,0,0-.27-.1.41.41,0,0,0-.19,0,.58.58,0,0,0-.14.13l-.42.68a2.23,2.23,0,0,0,.47.38,3.81,3.81,0,0,0,.57.29,4.71,4.71,0,0,0,.64.19,3.68,3.68,0,0,0,.66.06,3.06,3.06,0,0,0,1-.17,2.31,2.31,0,0,0,.77-.49,2.11,2.11,0,0,0,.48-.73,2.39,2.39,0,0,0,.17-.89,1.81,1.81,0,0,0-.14-.74A1.51,1.51,0,0,0,80.29,57.84Z"/><rect class="cls-4" x="82.57" y="54.33" width="1.45" height="6.97"/><path class="cls-4" d="M87.92,58.19l1.49-.78a.25.25,0,0,0,.18-.27v-1L87.92,57V54.33H86.48v3.32l-.69.36a.25.25,0,0,0-.16.25v1l.85-.42V61.3h4.14V60.13h-2.7V58.19Z"/><path class="cls-4" d="M96.26,62.16h-.05l-.06,0-.08,0h-.14a.31.31,0,0,1-.22-.07.33.33,0,0,1-.08-.22.43.43,0,0,1,0-.19.76.76,0,0,1,.11-.16.71.71,0,0,1,.15-.15l.18-.12h.44V60.18h-3V58.34h2.33V57.25H93.56V55.46h3V54.33H92.11v7h3.22a1.64,1.64,0,0,0-.51.45.82.82,0,0,0-.17.51.63.63,0,0,0,.25.51,1.22,1.22,0,0,0,.75.2,2.11,2.11,0,0,0,.52-.07,1.74,1.74,0,0,0,.41-.18l-.2-.48A.12.12,0,0,0,96.26,62.16Z"/><path class="cls-4" d="M67.15,40.85c-.64-2.28-3.26-6.26-6.71-7.12C57.14,32.92,57,33,56.75,31c-.35-3,2.67-3.64,3.74-1.44.34.7-.07,1.84,1.2,2.43,1.71.78,2.38-.56,3.06-2.86.32-1.7-.75-2.11-.63-3.9.22-3.43-1.23-10.49-7.18-10.8a7.54,7.54,0,0,0-2.39.24,6.73,6.73,0,0,1-2.77-.24c-4.67-.51-7.46,5.38-8.5,8.81-.64,2.12-1.12,5.71.47,6.63.89.51,1.78,1.9,3.29,1.69s1.37-1.22,1.22-2.08a1.28,1.28,0,0,1,1-1.41,2.58,2.58,0,0,1,2.44.83c.45.69.61,1.34,0,2.72-.54.88-.44,1.3-2.34,1.33s-3.5,1.65-4.08,2.23c-1.48,1.49-1.55.07-1.92-1.26-.3-1-.51-1.6-.76-2.25-.86-2.23-4.11-3.06-5,5-.18,1.55-.36,3.55-3,.94C33,36,31.5,36.43,30.84,36.31c-1.52-.25-1.82-2.14-.42-2.51,2.93-.78,2.22-2.57,3-2.85A3.18,3.18,0,0,0,35,28.37a2.83,2.83,0,0,0-1.06-2.49c-.56-.41-.55-2.19-1.81-3.54-.92-1-2.53-1.71-5.58-1.7-7.57,0-6.42,5.66-7.08,5.94a2.88,2.88,0,0,0-1.21,2.54c0,1.31.85,2.57,1.45,2.68,1.48.27,0,1.17,3.2,2a1.43,1.43,0,0,1,.8,2.47c-1,1-2.4,0-4.25,1.12a7.79,7.79,0,0,0-1.74,1.86,18.45,18.45,0,0,0-1.58,3.52A14.24,14.24,0,0,1,14,47.4c-.73.82-2.61,4.33-.12,4.76,2.25.4,3.32-1.4,3.48-3.16a12,12,0,0,1,1.23-3c.5-1.19.92-2.53,1.86-1.7s.33,5.55,0,7.73a47.11,47.11,0,0,0,0,7.72c.05,1.34.41,1.51.07,3.37-.24,1.26,0,3,2.28,3S25.19,63.9,25.1,63c-.25-2.59.24-4.83.08-7-.1-1.36,1.37-1.78,2.32-1.58.73.15,1.47.36,1.6,1.45.19,1.68.83,4.77.45,7.23-.12.76-.12,3,2.25,3s2.45-1.85,2.14-3a9.73,9.73,0,0,1-.08-3c.59-5,1-7.86.3-10.77-.37-1.47.05-3.55-.28-5.18,0-.44,0-.71.19-.82a1.51,1.51,0,0,1,1.12.17,4.36,4.36,0,0,0,1.17.35,2.89,2.89,0,0,0,1,0c1.77-.35,2.41-2.26,2.55-3,.38-1.9.52-2.69.71-3.29.45-1.37.6-.56.72,0,.15.7.16,2.18,1.38,2.79,1.7.84,3.11-1.5,4-.6,1.8,1.69-2.31,9.51-2.4,9.64-.77,1.25-1.48,4.22.78,4.41s2.72,1,2.63,2c-.25,2.65.52,3.7,0,7C47.59,63.59,47,66,50,66.05c2.24,0,2.24-2.24,2.09-3.43-.36-2.74.71-4.14.25-7.27-.19-1.34-.34-1.4.76-1.24a13.47,13.47,0,0,0,2.1.08c.69-.14,1.12-.21,1,.83-.23,1.75.53,2.78.47,7.1,0,1-.79,3.64,1.37,3.93,2.89.39,2.54-2.27,2.47-2.92-.27-2.68.89-2.37-.09-7.84-.31-1.7.86-1.38,2.34-1.55,2-.23,1.66-2,.53-4.16C63,49,62.69,47.48,62,45.65c-1.09-2.85-2.06-5.11-1.08-5.6s2.55,1.14,3.3,3c.48,1.2,1.4,3,1.64,3.69,1,3.18,4.39,1.46,3.64-.66C69.17,45.19,67.61,42.45,67.15,40.85Z"/></g></g></g></g></svg>